<svg width="104" height="60" viewBox="0 0 104 60" fill="none" xmlns="http://www.w3.org/2000/svg">
<path fill-rule="evenodd" clip-rule="evenodd" d="M47.6618 7.04247V0H69.3098V21.4344L55.7514 28.2255V35.268H34.1034V13.8335L47.6618 7.04247ZM53.6301 4.0519L48.9722 1.71891V6.38488L53.6301 4.0519ZM51.0936 1.31276L56.5623 4.0519L36.2248 14.2372L41.539 16.899L61.8766 6.71368L67.9993 9.78161V1.31276H51.0936ZM61.2201 8.50995L42.1931 18.0401V26.758L61.2201 17.2278V8.50995ZM40.8826 18.0401L35.4139 15.301V24.0189L40.8826 26.758V18.0401ZM49.7831 31.2161L54.4409 33.549V28.8831L49.7831 31.2161ZM46.8521 31.2167L46.8509 31.2161L46.8485 31.2185L46.8521 31.2167ZM52.3196 33.9552L46.8521 31.2167L67.1981 21.0259L61.8741 18.3689L41.5366 28.5567L35.4139 25.4888V33.9552H52.3196ZM62.5306 8.50995V17.2278L67.9993 19.9549V11.2491L62.5306 8.50995ZM0 45.903V60H5.64971C10.7347 60 13.5704 56.9998 13.5704 52.9116C13.5704 48.8234 11.0581 45.903 6.19272 45.903H0ZM5.64971 58.1868H2.01034V58.1844V47.7138H5.99241C9.79107 47.7138 11.4804 49.7881 11.4804 52.8898C11.4804 56.214 9.40975 58.1868 5.64971 58.1868ZM30.2541 60H27.3798L20.6247 53.5958V60H18.6144V45.903H25.5697C28.1231 45.903 29.9331 47.634 29.9331 49.9911C29.9331 52.4692 28.2244 54.1204 25.1474 54.1204H23.7404L30.2541 60ZM20.6247 47.6968V52.5707H24.8867C26.7571 52.5707 27.8431 51.6448 27.8431 50.0733C27.8431 48.6228 26.8174 47.6968 25.1691 47.6968H20.6247ZM43.4191 56.1343L44.9274 60H47.0777L41.4884 45.903H38.8143L33.126 60H35.2377L36.7654 56.1343H43.4191ZM42.7771 54.483H37.4097L40.1031 47.6146L42.7771 54.483ZM51.5208 60V45.8836H53.5311V60H51.5208ZM71.7642 45.903H69.5921L64.8667 57.8653L60.122 45.903H57.9307L63.7011 60H65.9938L71.7642 45.903ZM78.1741 58.1868H86.6571V60H76.1637V45.903H86.5582V47.7162H78.1741V51.6835H86.0151V53.4556H78.1741V58.1868ZM100.568 60H103.442L96.9284 54.1204H98.3354C101.412 54.1204 103.121 52.4692 103.121 49.9911C103.121 47.634 101.311 45.903 98.7578 45.903H91.8024V60H93.8128V53.5958L100.568 60ZM93.8128 52.5707V47.6968H98.3571C100.005 47.6968 101.031 48.6228 101.031 50.0733C101.031 51.6448 99.9452 52.5707 98.0748 52.5707H93.8128Z" fill="white"/>
</svg>
